<mxfile host="app.diagrams.net" modified="2023-08-28T06:21:13.676Z" agent="Mozilla/5.0 (Windows NT 10.0; Win64; x64) AppleWebKit/537.36 (KHTML, like Gecko) Chrome/116.0.0.0 Safari/537.36" etag="2DEz7eHFjYh9TF6V-Il_" version="21.6.9" type="github">
  <diagram name="第 1 页" id="1nvgzbL6tn-MIkEtbxwa">
    <mxGraphModel dx="1434" dy="720" grid="1" gridSize="10" guides="1" tooltips="1" connect="1" arrows="1" fold="1" page="1" pageScale="1" pageWidth="827" pageHeight="1169" math="0" shadow="0">
      <root>
        <mxCell id="0" />
        <mxCell id="1" parent="0" />
        <mxCell id="6KLw7pYtQhYq6EeUDzWH-1" style="edgeStyle=orthogonalEdgeStyle;rounded=0;orthogonalLoop=1;jettySize=auto;html=1;exitX=0.5;exitY=1;exitDx=0;exitDy=0;exitPerimeter=0;entryX=0.5;entryY=0;entryDx=0;entryDy=0;entryPerimeter=0;" edge="1" parent="1" source="6KLw7pYtQhYq6EeUDzWH-2" target="6KLw7pYtQhYq6EeUDzWH-3">
          <mxGeometry relative="1" as="geometry" />
        </mxCell>
        <mxCell id="6KLw7pYtQhYq6EeUDzWH-2" value="开始" style="shape=mxgraph.flowchart.terminator;strokeWidth=2;gradientColor=none;gradientDirection=north;fontStyle=0;html=1;" vertex="1" parent="1">
          <mxGeometry x="149.5" y="170" width="120" height="30" as="geometry" />
        </mxCell>
        <mxCell id="6KLw7pYtQhYq6EeUDzWH-3" value="调查预览接口" style="shape=mxgraph.flowchart.data;strokeWidth=2;gradientColor=none;gradientDirection=north;fontStyle=0;html=1;" vertex="1" parent="1">
          <mxGeometry x="130" y="230" width="159" height="80" as="geometry" />
        </mxCell>
        <mxCell id="6KLw7pYtQhYq6EeUDzWH-29" style="edgeStyle=orthogonalEdgeStyle;rounded=0;orthogonalLoop=1;jettySize=auto;html=1;entryX=0;entryY=0.5;entryDx=0;entryDy=0;entryPerimeter=0;" edge="1" parent="1" source="6KLw7pYtQhYq6EeUDzWH-5" target="6KLw7pYtQhYq6EeUDzWH-12">
          <mxGeometry relative="1" as="geometry">
            <mxPoint x="210" y="680" as="targetPoint" />
            <Array as="points">
              <mxPoint x="209" y="625" />
              <mxPoint x="210" y="625" />
              <mxPoint x="210" y="655" />
            </Array>
          </mxGeometry>
        </mxCell>
        <mxCell id="6KLw7pYtQhYq6EeUDzWH-5" value="返回正在作答中的&lt;br&gt;调查及对应的试题" style="shape=mxgraph.flowchart.data;strokeWidth=2;gradientColor=none;gradientDirection=north;fontStyle=0;html=1;" vertex="1" parent="1">
          <mxGeometry x="129" y="490" width="159" height="80" as="geometry" />
        </mxCell>
        <mxCell id="6KLw7pYtQhYq6EeUDzWH-6" style="edgeStyle=orthogonalEdgeStyle;rounded=0;orthogonalLoop=1;jettySize=auto;html=1;entryX=0;entryY=0.5;entryDx=0;entryDy=0;entryPerimeter=0;" edge="1" parent="1" source="6KLw7pYtQhYq6EeUDzWH-7" target="6KLw7pYtQhYq6EeUDzWH-16">
          <mxGeometry relative="1" as="geometry" />
        </mxCell>
        <mxCell id="6KLw7pYtQhYq6EeUDzWH-7" value="是否有作答中的调查" style="shape=mxgraph.flowchart.decision;strokeWidth=2;gradientColor=none;gradientDirection=north;fontStyle=0;html=1;" vertex="1" parent="1">
          <mxGeometry x="145.25" y="372.75" width="128.5" height="57" as="geometry" />
        </mxCell>
        <mxCell id="6KLw7pYtQhYq6EeUDzWH-8" style="entryX=0.5;entryY=0;entryPerimeter=0;fontStyle=1;strokeColor=#003366;strokeWidth=1;html=1;" edge="1" parent="1" target="6KLw7pYtQhYq6EeUDzWH-7">
          <mxGeometry relative="1" as="geometry">
            <mxPoint x="208.5" y="310" as="sourcePoint" />
          </mxGeometry>
        </mxCell>
        <mxCell id="6KLw7pYtQhYq6EeUDzWH-9" value="否" style="text;fontStyle=0;html=1;strokeColor=none;gradientColor=none;fillColor=none;strokeWidth=2;" vertex="1" parent="1">
          <mxGeometry x="298.5" y="370" width="40" height="26" as="geometry" />
        </mxCell>
        <mxCell id="6KLw7pYtQhYq6EeUDzWH-10" value="" style="edgeStyle=elbowEdgeStyle;elbow=horizontal;fontColor=#001933;fontStyle=1;strokeColor=#003366;strokeWidth=1;html=1;" edge="1" parent="1" source="6KLw7pYtQhYq6EeUDzWH-7" target="6KLw7pYtQhYq6EeUDzWH-5">
          <mxGeometry width="100" height="100" as="geometry">
            <mxPoint x="-111.5" y="80" as="sourcePoint" />
            <mxPoint x="-11.5" y="-20" as="targetPoint" />
          </mxGeometry>
        </mxCell>
        <mxCell id="6KLw7pYtQhYq6EeUDzWH-11" value="是" style="text;fontStyle=0;html=1;strokeColor=none;gradientColor=none;fillColor=none;strokeWidth=2;align=center;" vertex="1" parent="1">
          <mxGeometry x="208.5" y="427" width="40" height="26" as="geometry" />
        </mxCell>
        <mxCell id="6KLw7pYtQhYq6EeUDzWH-12" value="结束" style="shape=mxgraph.flowchart.terminator;strokeWidth=2;gradientColor=none;gradientDirection=north;fontStyle=0;html=1;" vertex="1" parent="1">
          <mxGeometry x="348.5" y="640" width="120" height="30" as="geometry" />
        </mxCell>
        <mxCell id="6KLw7pYtQhYq6EeUDzWH-13" style="edgeStyle=orthogonalEdgeStyle;rounded=0;orthogonalLoop=1;jettySize=auto;html=1;entryX=0.5;entryY=0;entryDx=0;entryDy=0;entryPerimeter=0;" edge="1" parent="1" source="6KLw7pYtQhYq6EeUDzWH-16" target="6KLw7pYtQhYq6EeUDzWH-18">
          <mxGeometry relative="1" as="geometry" />
        </mxCell>
        <mxCell id="6KLw7pYtQhYq6EeUDzWH-14" style="edgeStyle=orthogonalEdgeStyle;rounded=0;orthogonalLoop=1;jettySize=auto;html=1;entryX=0.5;entryY=0;entryDx=0;entryDy=0;entryPerimeter=0;" edge="1" parent="1" source="6KLw7pYtQhYq6EeUDzWH-16" target="6KLw7pYtQhYq6EeUDzWH-21">
          <mxGeometry relative="1" as="geometry" />
        </mxCell>
        <mxCell id="6KLw7pYtQhYq6EeUDzWH-15" value="是" style="edgeLabel;html=1;align=center;verticalAlign=middle;resizable=0;points=[];" vertex="1" connectable="0" parent="6KLw7pYtQhYq6EeUDzWH-14">
          <mxGeometry x="-0.4456" y="-3" relative="1" as="geometry">
            <mxPoint as="offset" />
          </mxGeometry>
        </mxCell>
        <mxCell id="6KLw7pYtQhYq6EeUDzWH-16" value="是否是重新鉴定" style="strokeWidth=2;html=1;shape=mxgraph.flowchart.decision;whiteSpace=wrap;" vertex="1" parent="1">
          <mxGeometry x="348.5" y="375.5" width="140" height="51.5" as="geometry" />
        </mxCell>
        <mxCell id="6KLw7pYtQhYq6EeUDzWH-24" style="edgeStyle=orthogonalEdgeStyle;rounded=0;orthogonalLoop=1;jettySize=auto;html=1;entryX=0.567;entryY=0.033;entryDx=0;entryDy=0;entryPerimeter=0;" edge="1" parent="1" source="6KLw7pYtQhYq6EeUDzWH-18" target="6KLw7pYtQhYq6EeUDzWH-12">
          <mxGeometry relative="1" as="geometry">
            <Array as="points">
              <mxPoint x="417" y="590" />
              <mxPoint x="417" y="590" />
            </Array>
          </mxGeometry>
        </mxCell>
        <mxCell id="6KLw7pYtQhYq6EeUDzWH-18" value="返回最大版本的&lt;br&gt;调查及对应的试题" style="shape=mxgraph.flowchart.data;strokeWidth=2;gradientColor=none;gradientDirection=north;fontStyle=0;html=1;" vertex="1" parent="1">
          <mxGeometry x="339" y="490" width="159" height="80" as="geometry" />
        </mxCell>
        <mxCell id="6KLw7pYtQhYq6EeUDzWH-19" value="否" style="text;html=1;align=center;verticalAlign=middle;resizable=0;points=[];autosize=1;strokeColor=none;fillColor=none;" vertex="1" parent="1">
          <mxGeometry x="414" y="438" width="40" height="30" as="geometry" />
        </mxCell>
        <mxCell id="6KLw7pYtQhYq6EeUDzWH-28" style="edgeStyle=orthogonalEdgeStyle;rounded=0;orthogonalLoop=1;jettySize=auto;html=1;entryX=1;entryY=0.5;entryDx=0;entryDy=0;entryPerimeter=0;" edge="1" parent="1" source="6KLw7pYtQhYq6EeUDzWH-21" target="6KLw7pYtQhYq6EeUDzWH-12">
          <mxGeometry relative="1" as="geometry">
            <mxPoint x="618" y="670" as="targetPoint" />
            <Array as="points">
              <mxPoint x="618" y="620" />
              <mxPoint x="619" y="620" />
              <mxPoint x="619" y="655" />
            </Array>
          </mxGeometry>
        </mxCell>
        <mxCell id="6KLw7pYtQhYq6EeUDzWH-21" value="返回上次次鉴定&lt;br&gt;对应的调查&lt;br&gt;及相应的试题" style="shape=mxgraph.flowchart.data;strokeWidth=2;gradientColor=none;gradientDirection=north;fontStyle=0;html=1;" vertex="1" parent="1">
          <mxGeometry x="538.5" y="490" width="159" height="80" as="geometry" />
        </mxCell>
      </root>
    </mxGraphModel>
  </diagram>
</mxfile>
